# xmcd
#
# Track frame offsets: 
#        150
#        5459
#        30596
#        33632
#        62208
#        89067
#        90666
#        122004
#        125624
#
# Disc length: 1943 seconds
#
# Revision: 0
# Processed by: cddbd v1.4PL0 Copyright (c) Steve Scherf et al.
# Submitted via: ExactAudioCopy v0.90b3
#
DISCID=76079509
DTITLE=Lincoln - Kibokin
DYEAR=2001
DGENRE=
TTITLE0=Prelude
TTITLE1=Little Mistakes
TTITLE2=Interlude
TTITLE3=Drowing In Flame
TTITLE4=Atlanta, GA
TTITLE5=Interlude
TTITLE6=Crow Song
TTITLE7=Interlude
TTITLE8=Proud Of Myself
EXTD=
EXTT0=
EXTT1=
EXTT2=
EXTT3=
EXTT4=
EXTT5=
EXTT6=
EXTT7=
EXTT8=
PLAYORDER=
